<?xml version="1.0" encoding="utf-8"?>
<!-- Generator: Adobe Illustrator 25.1.0, SVG Export Plug-In . SVG Version: 6.00 Build 0)  -->
<svg version="1.1" xmlns="http://www.w3.org/2000/svg" xmlns:xlink="http://www.w3.org/1999/xlink" x="0px" y="0px"
	 viewBox="0 0 595.28 841.89" style="enable-background:new 0 0 595.28 841.89;" xml:space="preserve">
<style type="text/css">
	.st0{fill:#676767;}
	.st1{fill:none;stroke:#676767;stroke-width:18;stroke-miterlimit:10;}
	.st2{opacity:0.81;fill:none;stroke:#FFFFFF;stroke-width:12;stroke-miterlimit:10;}
</style>
<g id="Layer_1">
	<g>
		<g>
			<path class="st0" d="M300.83,179.81c52.68,0,102.36,20.12,139.89,56.65c37.52,36.52,58.61,85.29,59.38,137.34
				c0.39,26.59-4.49,52.46-14.52,76.9c-9.69,23.62-23.76,44.93-41.82,63.33c-18.07,18.41-39.21,32.98-62.84,43.29
				c-24.46,10.68-50.55,16.31-77.53,16.73c-1.09,0.02-2.15,0.03-3.24,0.03c-52.68,0-102.36-20.12-139.89-56.65
				c-37.52-36.52-58.61-85.29-59.38-137.34c-0.39-26.59,4.49-52.46,14.52-76.9c9.69-23.62,23.76-44.93,41.82-63.33
				c18.07-18.41,39.21-32.98,62.84-43.29c24.47-10.68,50.55-16.31,77.53-16.73C298.67,179.82,299.74,179.81,300.83,179.81
				 M300.83,161.81c-1.18,0-2.34,0.01-3.52,0.03c-120.18,1.88-216.17,99.72-214.41,218.52c1.74,117.63,98.69,211.72,217.26,211.72
				c1.18,0,2.34-0.01,3.52-0.03c120.18-1.88,216.17-99.72,214.41-218.52C516.35,255.9,419.4,161.81,300.83,161.81L300.83,161.81z"/>
		</g>
		<g>
			<path class="st1" d="M155.91,225.47c-1.2,97.51-2.4,195.02-3.6,292.53"/>
		</g>
		<g>
			<path class="st1" d="M447.32,233.91c-1.44,98.05-2.88,196.1-4.32,294.15"/>
		</g>
		<line class="st1" x1="155.91" y1="225.47" x2="296.02" y2="584.42"/>
		<path class="st1" d="M447.32,233.91C399.37,348.96,351.42,464,303.48,579.05"/>
		<line class="st1" x1="155.91" y1="225.47" x2="448.81" y2="229.31"/>
		<line class="st1" x1="299" y1="232.38" x2="299" y2="592.08"/>
	</g>
</g>
<g id="Layer_2">
	<ellipse class="st2" cx="302.36" cy="378.89" rx="241.8" ry="235.98"/>
</g>
<g id="Layer_3">
</g>
</svg>
